<mxfile host="app.diagrams.net" agent="Mozilla/5.0 (Windows NT 10.0; Win64; x64) AppleWebKit/537.36 (KHTML, like Gecko) Chrome/122.0.6261.95 Safari/537.36" version="26.2.9">
  <diagram name="Activity启动" id="-ayfRYu_J87Z2k8ZAiav">
    <mxGraphModel dx="566" dy="464" grid="1" gridSize="10" guides="1" tooltips="1" connect="1" arrows="1" fold="1" page="1" pageScale="1" pageWidth="827" pageHeight="1169" math="0" shadow="0">
      <root>
        <mxCell id="0" />
        <mxCell id="1" parent="0" />
        <mxCell id="JiGocW1-IXIZcrb5UFu4-1" value="startActivity流程" style="swimlane;childLayout=stackLayout;resizeParent=1;resizeParentMax=0;startSize=20;html=1;" vertex="1" parent="1">
          <mxGeometry x="230.00000000000045" y="110" width="360" height="480" as="geometry" />
        </mxCell>
        <mxCell id="JiGocW1-IXIZcrb5UFu4-2" value="Activity" style="swimlane;startSize=20;html=1;" vertex="1" parent="JiGocW1-IXIZcrb5UFu4-1">
          <mxGeometry y="20" width="120" height="460" as="geometry" />
        </mxCell>
        <mxCell id="JiGocW1-IXIZcrb5UFu4-5" value="startActivity" style="rounded=1;whiteSpace=wrap;html=1;" vertex="1" parent="JiGocW1-IXIZcrb5UFu4-2">
          <mxGeometry x="15" y="40" width="90" height="20" as="geometry" />
        </mxCell>
        <mxCell id="JiGocW1-IXIZcrb5UFu4-3" value="Lane 2" style="swimlane;startSize=20;html=1;" vertex="1" parent="JiGocW1-IXIZcrb5UFu4-1">
          <mxGeometry x="120" y="20" width="120" height="460" as="geometry" />
        </mxCell>
        <mxCell id="JiGocW1-IXIZcrb5UFu4-4" value="Lane 3" style="swimlane;startSize=20;html=1;" vertex="1" parent="JiGocW1-IXIZcrb5UFu4-1">
          <mxGeometry x="240" y="20" width="120" height="460" as="geometry" />
        </mxCell>
      </root>
    </mxGraphModel>
  </diagram>
</mxfile>
